<?xml version="1.0" encoding="utf-8"?>
<!-- Generator: Adobe Illustrator 16.0.0, SVG Export Plug-In . SVG Version: 6.00 Build 0)  -->
<!DOCTYPE svg PUBLIC "-//W3C//DTD SVG 1.1//EN" "http://www.w3.org/Graphics/SVG/1.1/DTD/svg11.dtd">
<svg version="1.1" id="Layer_1" xmlns="http://www.w3.org/2000/svg" xmlns:xlink="http://www.w3.org/1999/xlink" x="0px" y="0px"
	 width="121px" height="30px" viewBox="0 0 121 30" enable-background="new 0 0 121 30" xml:space="preserve">
<title>brand/logo@1x</title>
<desc>Created with Sketch.</desc>
<g id="Mask">
	<path id="path-2_1_" fill="#FFFFFF" d="M14.535,23.48c3.067,0,5.574-1.214,7.52-3.641c0.128-0.164,0.221-0.266,0.28-0.309
		c0.017,0.67,0,7.641,0,7.639c-2.288,1.456-4.75,2.15-7.5,2.15c-4.307,0-7.854-1.36-10.64-4.08c-2.787-2.721-4.18-6.153-4.18-10.3
		c0-4.146,1.42-7.606,4.26-10.38s6.313-4.16,10.42-4.16c2.858,0,5.427,0.679,7.706,2.035c-0.016-0.021-0.038,2.514-0.065,7.605
		c-1.974-2.453-4.427-3.68-7.36-3.68c-2.347,0-4.354,0.767-6.02,2.3c-1.667,1.533-2.5,3.6-2.5,6.2s0.787,4.687,2.36,6.26
		S12.295,23.48,14.535,23.48z M111.535,23.48c3.066,0,5.573-1.214,7.52-3.641c0.128-0.164,0.221-0.266,0.28-0.309
		c0.017,0.67-0.001,7.641,0,7.639c-2.288,1.456-4.751,2.15-7.5,2.15c-4.307,0-7.854-1.36-10.64-4.08
		c-2.787-2.721-4.18-6.153-4.18-10.3c0-4.146,1.42-7.606,4.26-10.38s6.312-4.16,10.42-4.16c2.857,0,5.427,0.679,7.705,2.035
		c-0.016-0.021-0.037,2.514-0.065,7.605c-1.974-2.453-4.427-3.68-7.36-3.68c-2.346,0-4.354,0.767-6.02,2.3
		c-1.667,1.533-2.5,3.6-2.5,6.2s0.787,4.687,2.359,6.26C107.389,22.693,109.295,23.48,111.535,23.48z M44.18,1.04h6.24V29h-6.24
		L30.86,11.48V29h-6.24V1.04h5.84l13.72,18V1.04z M76.352,28.92v0.002H52.8V1.04h20.16V6.6H59.04v5.76h12.521v5.32H59.04v5.801
		h17.015L84.335,1.4h5.16l10.319,27.52h-5.672l-2.222-5.945H81.908l-2.221,5.945H76.352z M87.022,9.274l-3.007,7.992h5.98
		L87.022,9.274z"/>
</g>
</svg>
